<svg width="73" height="108" viewBox="0 0 73 108" fill="none" xmlns="http://www.w3.org/2000/svg">
<path d="M18.5349 108.844C28.5755 108.844 36.6755 100.744 36.6755 90.7031V72.5625H18.5349C8.49423 72.5625 0.394226 80.6625 0.394226 90.7031C0.394226 100.744 8.49423 108.844 18.5349 108.844Z" fill="#0ACF83"/>
<path d="M0.394226 54.4219C0.394226 44.3813 8.49423 36.2812 18.5349 36.2812H36.6755V72.5625H18.5349C8.49423 72.5625 0.394226 64.4625 0.394226 54.4219Z" fill="#A259FF"/>
<path d="M0.394226 18.1406C0.394226 8.1 8.49423 0 18.5349 0H36.6755V36.2812H18.5349C8.49423 36.2812 0.394226 28.1812 0.394226 18.1406Z" fill="#F24E1E"/>
<path d="M36.6755 0H54.8161C64.8567 0 72.9567 8.1 72.9567 18.1406C72.9567 28.1812 64.8567 36.2812 54.8161 36.2812H36.6755V0Z" fill="#FF7262"/>
<path d="M72.9567 54.4219C72.9567 64.4625 64.8567 72.5625 54.8161 72.5625C44.7755 72.5625 36.6755 64.4625 36.6755 54.4219C36.6755 44.3813 44.7755 36.2812 54.8161 36.2812C64.8567 36.2812 72.9567 44.3813 72.9567 54.4219Z" fill="#1ABCFE"/>
</svg>
