<svg width="96" height="96" viewBox="0 0 96 96" fill="none" xmlns="http://www.w3.org/2000/svg">
<path d="M0.894226 0.75H95.3942V95.25H0.894226V0.75Z" fill="#F5DE19"/>
<path d="M64.3746 74.5781C65.181 76.2126 66.4323 77.5864 67.9845 78.5416C69.5368 79.4968 71.3271 79.9947 73.1496 79.9781C76.8283 79.9781 79.1807 78.1387 79.1807 75.5906C79.1807 72.5531 76.7642 71.4663 72.7142 69.6944L70.4935 68.7427C64.081 66.0123 59.8285 62.5934 59.8285 55.3642C59.8285 48.7053 64.891 43.6327 72.8323 43.6327C75.403 43.4475 77.9714 44.023 80.2172 45.2876C82.463 46.5521 84.2869 48.4497 85.4616 50.7438L78.5192 55.1819C78.0666 54.0446 77.2792 53.0715 76.2613 52.3917C75.2433 51.7118 74.0428 51.3573 72.8188 51.3749C72.2848 51.3215 71.7455 51.3799 71.2352 51.5463C70.7249 51.7128 70.255 51.9838 69.8552 52.3419C69.4555 52.7001 69.1347 53.1376 68.9134 53.6266C68.6921 54.1155 68.575 54.6452 68.5697 55.1819C68.5697 57.8448 70.2201 58.9248 74.0305 60.5819L76.2512 61.5337C83.7977 64.7703 88.0637 68.0677 88.0637 75.4826C88.0637 83.4779 81.7828 87.8587 73.3487 87.8587C70.0628 88.0659 66.7871 87.3189 63.9159 85.7076C61.0447 84.0963 58.7005 81.6893 57.1656 78.7766L64.3746 74.5781ZM33.004 75.3476C34.3978 77.8214 35.6668 79.9139 38.7178 79.9139C41.6338 79.9139 43.4766 78.7732 43.4766 74.3351V44.1389H52.3562V74.4532C52.3562 83.6467 46.9562 87.8317 39.0958 87.8317C36.3174 87.9836 33.558 87.2911 31.1804 85.8454C28.8028 84.3997 26.9184 82.2684 25.7747 79.7317L33.004 75.3476Z" fill="black"/>
</svg>
