<svg width="109" height="108" viewBox="0 0 109 108" fill="none" xmlns="http://www.w3.org/2000/svg">
<g clip-path="url(#clip0_6_176)">
<path d="M82.8317 0H25.4567C11.477 0 0.144226 11.3328 0.144226 25.3125V82.6875C0.144226 96.6672 11.477 108 25.4567 108H82.8317C96.8114 108 108.144 96.6672 108.144 82.6875V25.3125C108.144 11.3328 96.8114 0 82.8317 0Z" fill="#001E36"/>
<path d="M24.4442 75.1106V28.8056C24.4442 28.4905 24.5792 28.3108 24.8944 28.3108C25.6592 28.3108 26.3794 28.3108 27.4142 28.2656C28.4942 28.2205 29.6194 28.2205 30.8344 28.1758C32.0494 28.1306 33.3542 28.1306 34.7494 28.0855C36.1441 28.0408 37.4941 28.0408 38.8441 28.0408C42.5342 28.0408 45.5941 28.4905 48.1144 29.4355C50.3733 30.2028 52.433 31.4633 54.1442 33.1256C55.5939 34.5807 56.7142 36.3301 57.4294 38.2556C58.1044 40.1456 58.4642 42.0808 58.4642 44.1058C58.4642 47.9758 57.5642 51.1708 55.7642 53.6908C53.9641 56.2106 51.4442 58.1006 48.5194 59.1806C45.4591 60.3058 42.0841 60.7108 38.3944 60.7108C37.3144 60.7108 36.5942 60.7108 36.1441 60.6656C35.6939 60.6205 35.0641 60.6205 34.2094 60.6205V75.0655C34.2541 75.3806 34.0292 75.6506 33.7141 75.6958H24.9842C24.6244 75.6958 24.4442 75.5156 24.4442 75.1106ZM34.2541 36.9955V52.1155C34.8844 52.1606 35.4691 52.2058 36.0091 52.2058H38.3944C40.1494 52.2058 41.9044 51.9358 43.5691 51.3958C45.0094 50.9908 46.2691 50.1356 47.2592 49.0105C48.2042 47.8858 48.6544 46.3556 48.6544 44.3758C48.6966 42.9695 48.3375 41.5802 47.6191 40.3705C46.8542 39.2006 45.7742 38.3008 44.4694 37.8055C42.8042 37.1305 41.0041 36.8605 39.1592 36.9056C37.9894 36.9056 36.9541 36.9056 36.0994 36.9508C35.1991 36.9056 34.5692 36.9508 34.2541 36.9955ZM86.5442 49.3708C85.1942 48.6506 83.7544 48.1558 82.2242 47.8406C80.5591 47.4808 78.8944 47.2555 77.1841 47.2555C76.2842 47.2108 75.3392 47.3458 74.4841 47.5706C73.8994 47.7056 73.4041 48.0208 73.0894 48.4705C72.8641 48.8308 72.7291 49.2805 72.7291 49.6855C72.7291 50.0905 72.9092 50.4955 73.1792 50.8558C73.5842 51.3506 74.1242 51.7556 74.7094 52.0708C75.7527 52.6109 76.8186 53.1064 77.9042 53.5558C80.3342 54.3658 82.6744 55.4905 84.8344 56.8405C86.3194 57.7855 87.5344 59.0456 88.3891 60.5758C89.1092 62.0156 89.4691 63.5905 89.4244 65.2105C89.4691 67.3258 88.8392 69.4406 87.6694 71.1956C86.4141 72.992 84.6627 74.3836 82.6292 75.2005C80.4241 76.1455 77.7241 76.6408 74.4841 76.6408C72.4144 76.6408 70.3894 76.4606 68.3644 76.0556C66.7772 75.7816 65.2337 75.2974 63.7744 74.6158C63.4592 74.4356 63.2344 74.1205 63.2791 73.7606V65.9306C63.2791 65.7956 63.3242 65.6155 63.4592 65.5256C63.5942 65.4358 63.7292 65.4805 63.8642 65.5708C65.6192 66.6056 67.4641 67.3258 69.4444 67.7755C71.1542 68.2256 72.9544 68.4505 74.7541 68.4505C76.4644 68.4505 77.6794 68.2256 78.4894 67.8206C79.2091 67.5055 79.7044 66.7406 79.7044 65.9306C79.7044 65.3008 79.3441 64.7156 78.6244 64.1305C77.9042 63.5458 76.4192 62.8708 74.2141 62.0156C71.9522 61.2184 69.8042 60.1292 67.8244 58.7756C66.4141 57.7708 65.2456 56.464 64.4042 54.9505C63.6841 53.5106 63.3242 51.9358 63.3694 50.3605C63.3694 48.4258 63.9094 46.5805 64.8991 44.9158C66.0242 43.1156 67.6894 41.6758 69.6241 40.7755C71.7394 39.6955 74.3942 39.2006 77.5891 39.2006C79.4344 39.2006 81.3244 39.3356 83.1692 39.6056C84.5192 39.7858 85.8241 40.1456 87.0391 40.6405C87.2192 40.6856 87.3994 40.8658 87.4892 41.0455C87.5344 41.2256 87.5791 41.4058 87.5791 41.5855V48.9206C87.5791 49.1008 87.4892 49.2805 87.3542 49.3708C86.9492 49.4606 86.7244 49.4606 86.5442 49.3708Z" fill="#31A8FF"/>
</g>
<defs>
<clipPath id="clip0_6_176">
<rect width="108" height="108" fill="white" transform="translate(0.144226)"/>
</clipPath>
</defs>
</svg>
