<svg width="96" height="96" viewBox="0 0 96 96" fill="none" xmlns="http://www.w3.org/2000/svg">
<path fill-rule="evenodd" clip-rule="evenodd" d="M48.1442 0.75C57.4894 0.75 66.6247 3.52116 74.3949 8.71306C82.1651 13.905 88.2213 21.2844 91.7975 29.9182C95.3738 38.552 96.3095 48.0524 94.4863 57.218C92.6632 66.3836 88.1631 74.8028 81.555 81.4108C74.947 88.0188 66.5278 92.519 57.3622 94.3421C48.1966 96.1653 38.6962 95.2296 30.0624 91.6533C21.4286 88.0771 14.0492 82.0209 8.85729 74.2507C3.66539 66.4805 0.894226 57.3452 0.894226 48C0.894226 35.4685 5.87234 23.4503 14.7334 14.5892C23.5945 5.72811 35.6128 0.75 48.1442 0.75Z" fill="#CC6699"/>
<path d="M77.7835 20.973C75.6437 12.5827 61.7286 9.83545 48.5594 14.4997C40.3117 17.2707 32.6917 21.6415 26.1359 27.3618C18.883 34.1456 17.7254 40.0518 18.2012 42.519C19.8887 51.2265 31.8126 56.9167 36.7165 61.1388V61.1625C35.272 61.8746 24.688 67.2375 22.204 72.705C19.5917 78.483 22.6191 82.6274 24.6272 83.1843C27.6422 83.9102 30.8087 83.674 33.6826 82.5088C36.5565 81.3436 38.9935 79.308 40.6517 76.6875C42.0231 74.5647 42.8811 72.1517 43.1576 69.6396C43.4342 67.1276 43.1216 64.5857 42.2447 62.2155C44.6063 61.612 47.0623 61.471 49.4774 61.8003C57.7664 62.769 59.3931 67.9428 59.0826 70.1096C58.9366 70.8809 58.6262 71.6116 58.1725 72.2523C57.7188 72.8929 57.1325 73.4283 56.4535 73.8221C55.873 74.1832 55.6941 74.3047 55.7447 74.5747C55.8156 74.9628 56.0822 74.9493 56.5784 74.865C57.824 74.4726 58.9216 73.7122 59.7265 72.6838C60.5314 71.6554 61.0058 70.4072 61.0874 69.1038C61.2865 64.0413 56.4231 58.3511 47.8101 58.4962C45.3084 58.4225 42.8119 58.7647 40.4222 59.5087L40.0577 59.1037C34.732 53.4236 24.8905 49.404 25.3056 41.7663C25.4575 38.9887 26.4227 31.6785 44.2056 22.809C58.7856 15.5426 70.4564 17.544 72.4746 21.9753C75.3569 28.3068 66.2376 40.0687 51.0974 41.7663C49.4239 42.106 47.6955 42.0646 46.0403 41.6451C44.3851 41.2256 42.8456 40.4388 41.536 39.3431C40.7395 38.4656 40.6214 38.4285 40.3244 38.5905C39.8417 38.8571 40.1489 39.6333 40.3244 40.0923C40.9042 41.137 41.6868 42.0555 42.6263 42.7938C43.5657 43.5321 44.6431 44.0755 45.7952 44.3921C51.7481 45.6837 57.9564 45.0697 63.541 42.6371C72.7244 39.0967 79.8861 29.2248 77.7835 20.973ZM38.755 63.7376C39.422 66.0489 39.388 68.5062 38.6571 70.7981C38.5784 71.0366 38.4917 71.2728 38.3972 71.5068C38.3027 71.7408 38.2004 71.9658 38.0901 72.1818C37.5184 73.3418 36.783 74.4136 35.9065 75.3645C33.1626 78.3581 29.3252 79.4921 27.6816 78.537C25.9064 77.5076 26.794 73.2855 29.9766 69.9206C32.4229 67.5034 35.2422 65.4954 38.3264 63.9738L38.755 63.7376Z" fill="white"/>
</svg>
