<svg width="128" height="128" viewBox="0 0 128 128" fill="none" xmlns="http://www.w3.org/2000/svg">
<mask id="mask0_41_12" style="mask-type:alpha" maskUnits="userSpaceOnUse" x="-1" y="0" width="129" height="128">
<path fill-rule="evenodd" clip-rule="evenodd" d="M90.767 127.126C91.7856 127.523 92.8749 127.706 93.9674 127.664C95.0598 127.622 96.1319 127.356 97.117 126.882L123.47 114.201C124.827 113.548 125.972 112.525 126.774 111.249C127.575 109.974 128 108.498 128 106.992V21.009C128 19.5026 127.575 18.0268 126.774 16.7513C125.973 15.4757 124.827 14.4524 123.47 13.799L97.117 1.12002C95.6279 0.403526 93.9529 0.167622 92.3238 0.444958C90.6947 0.722293 89.1921 1.49915 88.024 2.66802L37.574 48.694L15.6 32.013C14.6086 31.2608 13.3852 30.8791 12.1419 30.9343C10.8987 30.9894 9.71388 31.4779 8.79299 32.315L1.74499 38.726C1.19574 39.2256 0.756806 39.8343 0.456266 40.5132C0.155727 41.1921 0.000200077 41.9262 -0.000364667 42.6687C-0.000929412 43.4111 0.15348 44.1455 0.452987 44.8249C0.752493 45.5043 1.1905 46.1136 1.73899 46.614L20.796 64L1.73999 81.387C1.1918 81.8875 0.754054 82.4968 0.454734 83.1761C0.155413 83.8553 0.00110405 84.5896 0.00166874 85.3318C0.00223343 86.0741 0.15766 86.8081 0.458013 87.4869C0.758366 88.1657 1.19704 88.7744 1.74599 89.274L8.79399 95.685C9.71476 96.5223 10.8995 97.0109 12.1428 97.0663C13.386 97.1216 14.6095 96.7401 15.601 95.988L37.575 79.308L88.025 125.333C88.8058 126.114 89.7387 126.724 90.767 127.126ZM96.019 34.943L57.74 64L96.02 93.058L96.019 34.943Z" fill="white"/>
</mask>
<g mask="url(#mask0_41_12)">
<path d="M123.471 13.82L97.097 1.12004C95.6074 0.402626 93.9316 0.166223 92.3017 0.443579C90.6718 0.720934 89.1685 1.49832 88 2.66804L1.66202 81.387C1.11342 81.8873 0.675302 82.4965 0.375717 83.1758C0.0761317 83.8551 -0.078322 84.5894 -0.0777572 85.3319C-0.0771925 86.0743 0.0783784 86.8084 0.378997 87.4872C0.679615 88.1661 1.11866 88.7747 1.66802 89.274L8.72002 95.685C9.64106 96.5233 10.8266 97.0126 12.0707 97.0679C13.3149 97.1233 14.5392 96.7412 15.531 95.988L119.502 17.113C122.99 14.467 128 16.955 128 21.333V21.027C128 19.5211 127.575 18.0457 126.774 16.7706C125.973 15.4955 124.828 14.4734 123.471 13.82Z" fill="#0065A9"/>
<g filter="url(#filter0_d_41_12)">
<path d="M123.471 114.181L97.097 126.879C95.6076 127.597 93.9319 127.833 92.302 127.556C90.6721 127.279 89.1687 126.502 88 125.333L1.66202 46.6131C1.11342 46.1128 0.675302 45.5036 0.375717 44.8243C0.0761317 44.145 -0.078322 43.4106 -0.0777572 42.6682C-0.0771925 41.9258 0.0783784 41.1917 0.378997 40.5129C0.679615 39.834 1.11866 39.2254 1.66802 38.7261L8.72002 32.3151C9.64106 31.4768 10.8266 30.9875 12.0707 30.9321C13.3149 30.8768 14.5392 31.2589 15.531 32.0121L119.502 110.886C122.99 113.533 128 111.045 128 106.667V106.973C128 108.479 127.575 109.954 126.774 111.229C125.973 112.505 124.828 113.528 123.471 114.181Z" fill="#007ACC"/>
</g>
<g filter="url(#filter1_d_41_12)">
<path d="M97.098 126.882C95.6079 127.598 93.9321 127.834 92.3024 127.556C90.6726 127.279 89.1692 126.502 88 125.333C90.952 128.285 96 126.194 96 122.019V5.98001C96 1.80501 90.952 -0.285987 88 2.66701C89.1692 1.4982 90.6726 0.721382 92.3024 0.4439C93.9321 0.166418 95.6079 0.401973 97.098 1.11801L123.467 13.8C124.825 14.453 125.971 15.4761 126.773 16.7517C127.575 18.0272 128 19.5033 128 21.01V106.992C128 108.499 127.575 109.975 126.773 111.25C125.971 112.526 124.825 113.549 123.467 114.202L97.098 126.882Z" fill="#1F9CF0"/>
</g>
<path opacity="0.25" fill-rule="evenodd" clip-rule="evenodd" d="M90.69 127.126C91.7084 127.523 92.7976 127.706 93.8899 127.664C94.9821 127.622 96.054 127.356 97.039 126.882L123.392 114.201C124.749 113.548 125.895 112.524 126.696 111.249C127.497 109.973 127.922 108.497 127.922 106.991V21.009C127.922 19.5026 127.497 18.0268 126.696 16.7513C125.895 15.4757 124.749 14.4524 123.392 13.799L97.039 1.12002C95.5499 0.403526 93.8749 0.167622 92.2458 0.444958C90.6167 0.722293 89.1141 1.49915 87.946 2.66802L37.496 48.694L15.522 32.014C14.5306 31.2618 13.3072 30.8801 12.0639 30.9353C10.8207 30.9904 9.63588 31.4789 8.71499 32.316L1.66699 38.727C1.11788 39.2267 0.679066 39.8354 0.378615 40.5143C0.0781639 41.1932 -0.0773146 41.9273 -0.0778793 42.6697C-0.078444 43.4121 0.0759175 44.1465 0.375335 44.8258C0.674753 45.5052 1.11264 46.1145 1.66099 46.615L20.718 64L1.66199 81.386C1.1135 81.8864 0.675493 82.4958 0.375987 83.1751C0.0764807 83.8545 -0.0779289 84.5889 -0.0773641 85.3313C-0.0767994 86.0738 0.0787273 86.808 0.379267 87.4869C0.679806 88.1658 1.11874 88.7745 1.66799 89.274L8.71599 95.685C9.63676 96.5223 10.8215 97.0109 12.0648 97.0663C13.308 97.1216 14.5315 96.7401 15.523 95.988L37.498 79.307L87.948 125.333C88.7285 126.113 89.6621 126.724 90.69 127.126ZM95.942 34.942L57.662 64L95.942 93.057V34.942Z" fill="url(#paint0_linear_41_12)"/>
</g>
<defs>
<filter id="filter0_d_41_12" x="-8.41176" y="22.5929" width="144.746" height="113.41" filterUnits="userSpaceOnUse" color-interpolation-filters="sRGB">
<feFlood flood-opacity="0" result="BackgroundImageFix"/>
<feColorMatrix in="SourceAlpha" type="matrix" values="0 0 0 0 0 0 0 0 0 0 0 0 0 0 0 0 0 0 127 0" result="hardAlpha"/>
<feOffset/>
<feGaussianBlur stdDeviation="4.167"/>
<feColorMatrix type="matrix" values="0 0 0 0 0 0 0 0 0 0 0 0 0 0 0 0 0 0 0.25 0"/>
<feBlend mode="overlay" in2="BackgroundImageFix" result="effect1_dropShadow_41_12"/>
<feBlend mode="normal" in="SourceGraphic" in2="effect1_dropShadow_41_12" result="shape"/>
</filter>
<filter id="filter1_d_41_12" x="79.666" y="-8.00331" width="56.668" height="144.007" filterUnits="userSpaceOnUse" color-interpolation-filters="sRGB">
<feFlood flood-opacity="0" result="BackgroundImageFix"/>
<feColorMatrix in="SourceAlpha" type="matrix" values="0 0 0 0 0 0 0 0 0 0 0 0 0 0 0 0 0 0 127 0" result="hardAlpha"/>
<feOffset/>
<feGaussianBlur stdDeviation="4.167"/>
<feColorMatrix type="matrix" values="0 0 0 0 0 0 0 0 0 0 0 0 0 0 0 0 0 0 0.25 0"/>
<feBlend mode="overlay" in2="BackgroundImageFix" result="effect1_dropShadow_41_12"/>
<feBlend mode="normal" in="SourceGraphic" in2="effect1_dropShadow_41_12" result="shape"/>
</filter>
<linearGradient id="paint0_linear_41_12" x1="63.922" y1="0.33002" x2="63.922" y2="127.67" gradientUnits="userSpaceOnUse">
<stop stop-color="white"/>
<stop offset="1" stop-color="white" stop-opacity="0"/>
</linearGradient>
</defs>
</svg>
