<svg width="38" height="38" viewBox="0 0 38 38" fill="none" xmlns="http://www.w3.org/2000/svg">
<path fill-rule="evenodd" clip-rule="evenodd" d="M4.47785 1.21162C4.8934 0.79669 5.39239 0.474815 5.94175 0.267322C6.49111 0.0598291 7.07829 -0.0285442 7.66438 0.00805863C8.25048 0.0446615 8.8221 0.205405 9.34138 0.479636C9.86065 0.753867 10.3157 1.13532 10.6764 1.59873L14.9394 7.07531C15.7208 8.0799 15.9962 9.38849 15.6875 10.6234L14.3884 15.8245C14.3217 16.0939 14.3256 16.376 14.3996 16.6435C14.4737 16.911 14.6154 17.1549 14.8112 17.3516L20.6463 23.1868C20.8433 23.3829 21.0876 23.5249 21.3556 23.599C21.6235 23.673 21.906 23.6767 22.1758 23.6095L27.3745 22.3105C27.984 22.159 28.6199 22.1476 29.2345 22.2771C29.849 22.4067 30.4262 22.6739 30.9227 23.0586L36.3992 27.3192C38.368 28.851 38.5485 31.7603 36.7863 33.5201L34.3307 35.9758C32.5732 37.7332 29.9466 38.5051 27.498 37.643C21.2298 35.4404 15.5392 31.8523 10.8498 27.1458C6.14356 22.4571 2.55547 16.7673 0.352607 10.5C-0.507116 8.05378 0.264735 5.42473 2.02218 3.66729L4.47785 1.21162Z" fill="#200B31"/>
</svg>
