<svg width="100" height="84" viewBox="0 0 100 84" fill="none" xmlns="http://www.w3.org/2000/svg">
<path d="M91.4777 0.735762C91.4777 0.735762 100.728 -2.87142 99.954 5.88819C99.6993 9.49537 97.3873 22.1217 95.5873 35.7766L89.4206 76.2293C89.4206 76.2293 88.9063 82.1556 84.2801 83.1865C79.6562 84.2151 72.718 79.5794 71.4323 78.5484C70.4037 77.7746 52.1607 66.1792 45.7368 60.5125C43.9368 58.9649 41.8797 55.8744 45.994 52.2672L72.9752 26.5003C76.0586 23.405 79.1419 16.1907 66.2942 24.9527L30.3177 49.4291C30.3177 49.4291 26.2057 52.0077 18.4985 49.6886L1.79357 44.5338C1.79357 44.5338 -4.37315 40.6695 6.16266 36.8051C31.8605 24.6955 63.468 12.3287 91.4754 0.733381" fill="#200B31"/>
</svg>
