<svg width="100" height="101" viewBox="0 0 100 101" fill="none" xmlns="http://www.w3.org/2000/svg">
<path d="M12.5 0.143066H87.5C94.3973 0.143066 100 5.74575 100 12.6431V87.6431C100 94.5404 94.3973 100.143 87.5 100.143H12.5C5.60268 100.143 0 94.5404 0 87.6431V12.6431C0 5.74575 5.60268 0.143066 12.5 0.143066ZM60.4687 54.2056C61.942 42.3975 66.25 38.6922 71.942 38.6922C77.5893 38.6922 81.9643 43.2011 81.9643 49.7859C81.9643 56.3707 77.567 60.8797 71.942 60.8797C65.7143 60.8797 61.6071 56.0806 60.4687 54.2056ZM54.5089 44.8752C52.6786 41.4154 51.317 36.7725 50.2232 32.4645H36.183V49.8975C36.183 56.2368 33.3036 60.9243 27.6563 60.9243C22.0089 60.9243 18.7723 56.2591 18.7723 49.9199L18.8393 32.4868H10.7589V49.9199C10.7589 55.0091 12.4107 59.6297 15.4241 62.9109C18.5268 66.3038 22.7455 68.0895 27.6563 68.0895C37.4107 68.0895 44.2188 60.6118 44.2188 49.8975V38.1788C45.2455 42.0404 47.6563 49.4511 52.2991 55.969L47.9911 80.6341H56.2054L59.0625 63.1341C60 63.9154 61.0045 64.6074 62.0536 65.2324C64.7991 66.9734 67.9464 67.9556 71.183 68.0449H71.942C82.0089 68.0449 90 60.2547 90 49.7636C90 39.2725 81.9866 31.4154 71.942 31.4154C61.808 31.4154 56.1161 38.0449 54.5089 44.8306V44.8752Z" fill="#200B31"/>
</svg>
