<svg width="92" height="100" viewBox="0 0 92 100" fill="none" xmlns="http://www.w3.org/2000/svg">
<path fill-rule="evenodd" clip-rule="evenodd" d="M69.245 2.57644C53.8771 -0.858812 37.9403 -0.858812 22.5724 2.57644L20.9166 2.94278C16.5938 3.90926 12.6235 6.05518 9.44683 9.14217C6.27017 12.2292 4.01146 16.1364 2.92162 20.4297C-0.973874 35.7798 -0.973874 51.8597 2.92162 67.2097C3.96095 71.3043 6.06441 75.0513 9.01876 78.0708C11.9731 81.0904 15.6733 83.2751 19.7442 84.4036L22.0156 97.9633C22.0881 98.3938 22.2747 98.7971 22.556 99.1311C22.8373 99.465 23.203 99.7175 23.6149 99.8621C24.0269 100.007 24.4702 100.038 24.8985 99.9535C25.3268 99.8686 25.7245 99.6705 26.0503 99.3798L39.3902 87.4467C49.4041 88.0578 59.4542 87.257 69.245 85.0679L70.9057 84.7015C75.2285 83.735 79.1988 81.5891 82.3755 78.5021C85.5521 75.4151 87.8108 71.5079 88.9007 67.2146C92.7958 51.8645 92.7958 35.7847 88.9007 20.4346C87.8105 16.1406 85.551 12.233 82.3734 9.14595C79.1958 6.05891 75.2245 3.91334 70.9008 2.94767L69.245 2.57644ZM26.6951 20.0341C25.7872 19.9019 24.8615 20.0847 24.072 20.5518H24.0036C22.1719 21.6264 20.5209 22.9795 19.1141 24.5719C17.9418 25.9249 17.3068 27.2926 17.1407 28.6115C17.0431 29.393 17.1114 30.1843 17.341 30.9316L17.4289 30.9805C18.7478 34.854 20.4672 38.581 22.5676 42.0881C25.2758 47.0142 28.6086 51.5701 32.4833 55.6429L32.6006 55.809L32.7862 55.9458L32.8985 56.0777L33.0353 56.1949C37.1224 60.0813 41.689 63.4299 46.6243 66.1595C52.266 69.2319 55.6901 70.6827 57.7466 71.2884V71.3177C58.3474 71.5033 58.8945 71.5863 59.4464 71.5863C61.1978 71.4569 62.8554 70.745 64.1552 69.5641C65.7427 68.1573 67.086 66.5014 68.1313 64.6599V64.6257C69.1131 62.7696 68.7809 61.0209 67.3644 59.8339C64.5191 57.3478 61.4424 55.1397 58.1764 53.2397C55.9881 52.0527 53.7656 52.7708 52.8668 53.9724L50.9472 56.3952C49.9605 57.5968 48.1727 57.4307 48.1727 57.4307L48.1239 57.46C34.784 54.0554 31.2231 40.5495 31.2231 40.5495C31.2231 40.5495 31.057 38.7128 32.2928 37.775L34.6961 35.8407C35.8488 34.9028 36.6499 32.6852 35.4141 30.4969C33.5267 27.2279 31.3229 24.1522 28.8345 21.3138C28.2918 20.6458 27.5306 20.1909 26.6853 20.0292L26.6951 20.0341ZM49.2327 14.1628C48.5849 14.1628 47.9637 14.4201 47.5057 14.8781C47.0477 15.3361 46.7904 15.9573 46.7904 16.6051C46.7904 17.2528 47.0477 17.874 47.5057 18.332C47.9637 18.7901 48.5849 19.0474 49.2327 19.0474C55.4117 19.0474 60.5406 21.0647 64.5997 24.9333C66.6854 27.0484 68.312 29.5542 69.3768 32.2993C70.4466 35.0494 70.935 37.985 70.808 40.9256C70.7946 41.2463 70.8444 41.5665 70.9547 41.868C71.065 42.1695 71.2336 42.4463 71.4508 42.6826C71.8896 43.1598 72.5 43.4433 73.1478 43.4705C73.7955 43.4977 74.4275 43.2664 74.9048 42.8277C75.382 42.3889 75.6655 41.7785 75.6927 41.1307C75.8442 37.5136 75.2437 33.9044 73.9293 30.5311C72.6092 27.1418 70.6075 24.0596 68.0482 21.475L67.9994 21.4262C62.9633 16.6148 56.5889 14.1628 49.2327 14.1628ZM49.0666 22.1931C48.4189 22.1931 47.7977 22.4504 47.3396 22.9084C46.8816 23.3664 46.6243 23.9876 46.6243 24.6354C46.6243 25.2831 46.8816 25.9043 47.3396 26.3623C47.7977 26.8204 48.4189 27.0777 49.0666 27.0777H49.1496C53.6044 27.3952 56.8478 28.8801 59.1191 31.3175C61.4491 33.8282 62.6556 36.9495 62.5628 40.8083C62.5479 41.4561 62.7909 42.0832 63.2384 42.5518C63.6859 43.0203 64.3012 43.2919 64.9489 43.3068C65.5967 43.3217 66.2238 43.0787 66.6924 42.6312C67.1609 42.1837 67.4325 41.5684 67.4474 40.9207C67.5647 35.8553 65.9332 31.4836 62.6996 27.996V27.9862C59.3927 24.44 54.8549 22.5643 49.3939 22.1979L49.3108 22.1882L49.0666 22.1931ZM48.9738 30.3748C48.6469 30.346 48.3176 30.3833 48.0055 30.4845C47.6934 30.5858 47.4049 30.7489 47.1572 30.9641C46.9096 31.1793 46.7078 31.4422 46.564 31.7371C46.4201 32.032 46.3372 32.3529 46.3201 32.6806C46.3031 33.0082 46.3522 33.336 46.4646 33.6443C46.577 33.9525 46.7503 34.235 46.9743 34.4748C47.1983 34.7146 47.4683 34.9068 47.7682 35.0399C48.0681 35.173 48.3917 35.2444 48.7198 35.2496C50.7616 35.3571 52.0658 35.9726 52.8864 36.7981C53.7119 37.6285 54.3273 38.962 54.4397 41.0477C54.4458 41.3754 54.5178 41.6986 54.6514 41.9979C54.7851 42.2973 54.9776 42.5666 55.2176 42.79C55.4575 43.0133 55.74 43.1861 56.0481 43.298C56.3562 43.4098 56.6837 43.4585 57.0111 43.4411C57.3384 43.4238 57.6589 43.3406 57.9535 43.1968C58.248 43.0529 58.5106 42.8512 58.7256 42.6037C58.9405 42.3562 59.1034 42.068 59.2046 41.7561C59.3058 41.4443 59.3432 41.1154 59.3145 40.7888C59.1582 37.858 58.2399 35.2692 56.3593 33.3642C54.469 31.4592 51.8948 30.5311 48.9738 30.3748Z" fill="#200B31"/>
</svg>
