<svg width="100" height="100" viewBox="0 0 100 100" fill="none" xmlns="http://www.w3.org/2000/svg">
<path d="M85.4271 14.6234C80.8201 9.96977 75.3326 6.28004 69.2846 3.7694C63.2366 1.25876 56.7493 -0.0225131 50.201 0.000299345C22.7638 0.000299345 0.402011 22.3621 0.402011 49.7993C0.402011 58.5933 2.71357 67.136 7.03518 74.6737L0 100.503L26.3819 93.5681C33.6683 97.538 41.8593 99.6485 50.201 99.6485C77.6382 99.6485 100 77.2867 100 49.8495C100 36.533 94.8241 24.0204 85.4271 14.6234ZM50.201 91.2063C42.7638 91.2063 35.4774 89.1963 29.0955 85.4274L27.5879 84.5229L11.9095 88.6435L16.0804 73.3671L15.0754 71.8093C10.9434 65.2112 8.74945 57.5844 8.74372 49.7993C8.74372 26.9852 27.3367 8.39226 50.1507 8.39226C61.206 8.39226 71.608 12.7139 79.397 20.5531C83.2537 24.3921 86.31 28.9584 88.3889 33.9874C90.4678 39.0163 91.5278 44.4079 91.5075 49.8495C91.608 72.6636 73.0151 91.2063 50.201 91.2063ZM72.9146 60.2516C71.6583 59.6485 65.5276 56.6335 64.4221 56.1812C63.2663 55.7792 62.4623 55.5782 61.608 56.7842C60.7538 58.0405 58.392 60.8546 57.6884 61.6586C56.9849 62.5129 56.2311 62.6134 54.9749 61.9601C53.7186 61.3571 49.6985 60.0003 44.9749 55.7792C41.2563 52.4626 38.794 48.3923 38.0402 47.136C37.3367 45.8797 37.9397 45.2264 38.593 44.5732C39.1457 44.0204 39.8492 43.1159 40.4523 42.4124C41.0553 41.7088 41.3065 41.1561 41.7085 40.3521C42.1105 39.4978 41.9095 38.7943 41.608 38.1913C41.3065 37.5882 38.794 31.4576 37.7889 28.945C36.7839 26.533 35.7286 26.8345 34.9749 26.7842H32.5628C31.7085 26.7842 30.402 27.0857 29.2462 28.342C28.1407 29.5983 24.9246 32.6134 24.9246 38.744C24.9246 44.8747 29.397 50.8043 30 51.6083C30.603 52.4626 38.794 65.0254 51.2563 70.4023C54.2211 71.7088 56.5327 72.4626 58.3417 73.0154C61.3065 73.9701 64.0201 73.8194 66.1809 73.5179C68.593 73.1661 73.5678 70.5028 74.5729 67.5882C75.6281 64.6737 75.6281 62.2114 75.2764 61.6586C74.9246 61.1058 74.1708 60.8546 72.9146 60.2516Z" fill="#200B31"/>
</svg>
