<svg width="39" height="36" viewBox="0 0 39 36" fill="none" xmlns="http://www.w3.org/2000/svg">
<path fill-rule="evenodd" clip-rule="evenodd" d="M9.10416 4.37708V7.33542L5.575 7.62292C4.36256 7.72049 3.21785 8.22178 2.32389 9.04662C1.42993 9.87146 0.838357 10.9722 0.643746 12.1729C0.558329 12.7104 0.477079 13.2479 0.406246 13.7875C0.389383 13.918 0.414395 14.0504 0.477675 14.1657C0.540955 14.2811 0.639231 14.3733 0.758329 14.4292L0.918746 14.5042C12.2292 19.8583 25.7729 19.8583 37.0812 14.5042L37.2417 14.4292C37.3604 14.373 37.4582 14.2806 37.5211 14.1653C37.584 14.05 37.6087 13.9177 37.5917 13.7875C37.5211 13.2482 37.4426 12.7099 37.3562 12.1729C37.1616 10.9722 36.5701 9.87146 35.6761 9.04662C34.7821 8.22178 33.6374 7.72049 32.425 7.62292L28.8958 7.3375V4.37917C28.896 3.50594 28.5828 2.66164 28.0132 1.99983C27.4435 1.33802 26.6552 0.902651 25.7917 0.772915L23.25 0.391665C20.4324 -0.0310373 17.5676 -0.0310373 14.75 0.391665L12.2083 0.772915C11.3451 0.902598 10.5571 1.33766 9.98752 1.99904C9.41789 2.66042 9.10445 3.50422 9.10416 4.37708ZM22.7854 3.48125C20.2758 3.10485 17.7242 3.10485 15.2146 3.48125L12.6729 3.8625C12.5496 3.88095 12.437 3.94303 12.3556 4.03746C12.2741 4.13189 12.2293 4.25239 12.2292 4.37708V7.11666C16.7394 6.85829 21.2606 6.85829 25.7708 7.11666V4.37708C25.7707 4.25239 25.7259 4.13189 25.6444 4.03746C25.563 3.94303 25.4504 3.88095 25.3271 3.8625L22.7854 3.48125Z" fill="#CC1C39"/>
<path d="M38.0713 18.3911C38.0672 18.3238 38.0467 18.2584 38.0118 18.2007C37.9768 18.143 37.9283 18.0947 37.8705 18.0598C37.8127 18.025 37.7473 18.0047 37.68 18.0007C37.6126 17.9967 37.5453 18.0092 37.4838 18.037C25.8775 23.1766 12.2734 23.1766 0.667119 18.037C0.605626 18.0092 0.538302 17.9967 0.470936 18.0007C0.403571 18.0047 0.33818 18.025 0.280386 18.0598C0.222593 18.0947 0.174126 18.143 0.139154 18.2007C0.104182 18.2584 0.083751 18.3238 0.0796184 18.3911C-0.133294 22.3797 0.0811201 26.3795 0.719202 30.3224C0.91339 31.5235 1.50478 32.6247 2.39878 33.45C3.29277 34.2752 4.43772 34.7768 5.65045 34.8745L9.55045 35.187C15.89 35.6995 22.2588 35.6995 28.6005 35.187L32.5005 34.8745C33.7132 34.7768 34.8581 34.2752 35.7521 33.45C36.6461 32.6247 37.2375 31.5235 37.4317 30.3224C38.0692 26.3745 38.2859 22.3745 38.0713 18.3932" fill="#CC1C39"/>
</svg>
